<svg xmlns="http://www.w3.org/2000/svg" viewBox="0 0 24 24" width="24" height="24" fill="currentColor">
  <path fill-rule="evenodd" clip-rule="evenodd" d="M11.54 2.00 L12.85 2.03 L13.83 2.21 L15.04 2.61 L16.44 3.31 L17.30 3.89 L18.30 4.74 L19.29 5.82 L20.08 6.95 L18.70 6.23 L18.00 5.99 L16.78 5.71 L15.99 5.62 L14.80 5.62 L13.98 5.71 L12.97 5.93 L12.12 6.20 L11.12 6.66 L10.23 7.18 L9.35 7.81 L8.12 8.96 L7.48 9.69 L6.73 10.68 L6.32 9.87 L6.11 9.11 L5.99 8.29 L5.99 7.43 L6.20 6.22 L6.44 5.55 L6.75 4.94 L7.08 4.42 L7.51 3.90 L8.04 3.40 L8.71 2.91 L9.69 2.43 L10.23 2.24 L11.54 2.00 Z M6.19 5.04 L6.23 5.06 L5.56 6.40 L5.32 7.28 L5.23 7.92 L5.23 8.99 L5.32 9.60 L5.59 10.57 L5.93 11.30 L6.35 11.97 L6.78 12.49 L7.37 13.05 L8.07 13.57 L9.69 14.39 L11.65 15.04 L10.93 15.67 L10.30 16.06 L9.60 16.40 L8.74 16.67 L7.62 16.82 L6.55 16.76 L5.61 16.52 L4.66 16.06 L3.99 15.58 L3.46 15.04 L3.13 14.62 L2.61 13.67 L2.30 12.79 L2.15 11.76 L2.21 10.45 L2.55 9.17 L3.00 8.16 L3.61 7.22 L4.48 6.26 L5.09 5.74 L6.19 5.04 Z M15.47 6.81 L16.57 6.81 L17.69 6.99 L18.48 7.27 L19.09 7.57 L19.88 8.12 L20.54 8.77 L20.90 9.26 L21.42 10.23 L21.73 11.27 L21.85 12.12 L21.82 13.31 L21.57 14.50 L21.09 15.77 L20.39 16.96 L19.47 18.06 L18.67 18.80 L17.69 19.50 L16.29 20.23 L16.22 20.22 L16.25 20.16 L16.73 19.55 L17.25 18.61 L17.53 17.94 L17.80 16.99 L17.95 16.02 L17.98 14.95 L17.89 14.01 L17.71 13.16 L17.43 12.37 L16.95 11.39 L16.34 10.51 L15.91 10.02 L15.11 9.28 L14.25 8.64 L13.52 8.18 L12.72 7.77 L13.13 7.51 L13.80 7.21 L14.59 6.96 L15.47 6.81 Z M12.30 8.12 L12.94 8.42 L14.16 9.18 L14.86 9.70 L15.55 10.33 L13.80 12.02 L12.64 12.96 L11.12 14.09 L11.04 13.37 L11.01 12.03 L11.13 10.45 L11.28 9.84 L11.62 9.05 L11.86 8.65 L12.30 8.12 Z M16.32 13.42 L16.52 13.77 L16.73 14.34 L16.89 14.98 L16.98 15.74 L16.98 16.54 L16.86 17.51 L16.67 18.21 L16.46 18.76 L15.82 19.82 L15.04 20.66 L14.53 21.06 L14.01 21.36 L13.40 21.63 L12.70 21.85 L11.79 22.00 L10.72 22.00 L10.23 21.94 L9.41 21.76 L8.77 21.54 L7.49 20.93 L6.22 20.02 L5.32 19.18 L4.25 17.88 L3.40 16.47 L3.42 16.43 L4.18 16.95 L5.06 17.37 L5.82 17.65 L6.70 17.86 L7.37 17.95 L8.41 17.98 L9.29 17.92 L10.45 17.71 L11.48 17.37 L12.18 17.07 L13.55 16.25 L14.40 15.58 L15.33 14.68 L16.32 13.42 Z" />
</svg>
